<svg version="1.1" id="Layer_1" xmlns="http://www.w3.org/2000/svg" xmlns:xlink="http://www.w3.org/1999/xlink"
     x="0px" y="0px"
     width="101" height="101"
     viewBox="25 25 150 150" style="enable-background:new 0 0 200 200;" xml:space="preserve">
    <g>
	<path style="fill:white;" d="M97.8,68.1C74.8,68.1,56,86.9,56,109.9s18.8,41.9,41.8,41.9s41.8-18.8,41.8-41.9S120.9,68.1,97.8,68.1L97.8,68.1z
		 M97.8,145.9c-19.8,0-36-16.1-36-36c0-19.8,16.1-36,36-36s35.9,16.1,35.9,36C133.7,129.8,117.6,145.9,97.8,145.9L97.8,145.9z"/>
        <path style="fill:white;stroke:#FFFFFF" class="st0" d="M107.5,87.6c-4.4,0-7.4,1.5-9.7,3.7c-2.3-2.2-5.3-3.7-9.7-3.7c-8,0-14.6,6.6-14.6,14.6
		c0,11.7,10.6,22.3,20.8,32.5c0.9,0.9,2.2,1.4,3.5,1.4s2.5-0.5,3.5-1.4c10.2-10.2,20.8-20.8,20.8-32.5
		C122.1,94.2,115.5,87.6,107.5,87.6L107.5,87.6z M97.8,124.4c-7.6-7.7-14.5-15.4-14.5-22.2c0-2.6,2.2-4.8,4.8-4.8
		c1.9,0,3.1,0.2,5.3,4.6c0.8,1.7,2.5,2.7,4.4,2.7c1.9,0,3.5-1,4.4-2.7c2.2-4.4,3.4-4.6,5.3-4.6c2.6,0,4.8,2.2,4.8,4.8
		C112.3,108.9,105.4,116.7,97.8,124.4L97.8,124.4z"/>
        <path style="fill:white;" d="M57.2,78V52c0-1.6-1.3-2.9-2.9-2.9s-2.9,1.3-2.9,2.9v10.6H49V52c0-1.6-1.3-2.9-2.9-2.9c-1.6,0-2.9,1.3-2.9,2.9v10.6h-2.3
		V52c0-1.6-1.3-2.9-2.9-2.9s-2.9,1.3-2.9,2.9v10.6h-2.3V52c0-1.6-1.3-2.9-2.9-2.9c-1.6,0-2.9,1.3-2.9,2.9v25.9
		c0,5.2,2.6,9.7,6.5,12.5V143c0,4.8,3.9,8.7,8.7,8.7s8.7-3.9,8.7-8.7V90.4C54.6,87.7,57.2,83.1,57.2,78L57.2,78z M44.8,92.9v50.1
		c0,1.6-1.3,2.9-2.9,2.9s-2.9-1.3-2.9-2.9V92.9c0,0,0.1,0,0.1,0c0.2,0,0.4,0.1,0.6,0.1c0.1,0,0.1,0,0.1,0c0.2,0,0.4,0.1,0.6,0.1h0.1
		c0.4,0,0.9,0.1,1.3,0.1c0.5,0,0.9,0,1.4-0.1h0.1c0.2,0,0.4-0.1,0.6-0.1c0,0,0.1,0,0.1,0c0.2,0,0.4-0.1,0.6-0.1
		C44.8,92.9,44.8,92.9,44.8,92.9L44.8,92.9z M51.3,78c0,3.6-2,6.7-5,8.3c-0.1,0.1-0.3,0.1-0.4,0.2c0,0-0.1,0-0.1,0.1
		c-0.1,0.1-0.3,0.1-0.4,0.2c0,0-0.1,0-0.1,0c-0.5,0.2-1,0.4-1.6,0.4c0,0-0.1,0-0.1,0c-0.1,0-0.3,0.1-0.4,0.1c-0.1,0-0.1,0-0.1,0
		c-0.1,0-0.3,0-0.4,0h-0.1c-0.1,0-0.3,0-0.5,0h-0.1h-0.1h-0.5c-0.1,0-0.2,0-0.2,0c-0.1,0-0.2,0-0.3,0s-0.2,0-0.3,0
		c-0.1,0-0.1,0-0.2,0c-0.1,0-0.2,0-0.3-0.1c-0.1,0-0.1,0-0.1,0c-0.4-0.1-0.7-0.2-1.1-0.3c-0.1,0-0.1-0.1-0.2-0.1
		c-0.1,0-0.2-0.1-0.2-0.1c-0.1,0-0.2-0.1-0.3-0.1l-0.2-0.1c-0.1-0.1-0.2-0.1-0.4-0.2c-3-1.6-5-4.7-5-8.3v-9.4h18.7L51.3,78z"/>
        <path style="fill:white;" d="M170.3,116.9h-1.4V51.1c0-0.9-0.4-1.7-1.1-2.3c-0.7-0.6-1.6-0.8-2.5-0.6c-3.8,0.9-7.7,5.3-11.6,13.3
		c-3.3,6.9-6.1,15.6-7.5,23.7c-1.5,8.7-2.8,23.6,5.2,30.3v1.3H148c-1.6,0-2.9,1.3-2.9,2.9c0,1.6,1.3,2.9,2.9,2.9h3.5V143
		c0,4.8,3.9,8.7,8.7,8.7c4.8,0,8.7-3.9,8.7-8.7v-20.3h1.4c1.6,0,2.9-1.3,2.9-2.9C173.3,118.2,171.9,116.9,170.3,116.9L170.3,116.9z
		 M155.9,111.5c-4.7-3-6.2-12.4-3.9-25.3c1.3-7.6,3.9-15.7,7-22.1c1.5-3.1,2.8-5.3,4-6.8v59.6h-5.7V114
		C157.3,113,156.8,112.1,155.9,111.5L155.9,111.5z M163,143.1c0,1.6-1.3,2.9-2.9,2.9s-2.9-1.3-2.9-2.9v-20.3h5.7L163,143.1z"/>
</g>
</svg>
