<svg xmlns="http://www.w3.org/2000/svg" xmlns:xlink="http://www.w3.org/1999/xlink" width="149" height="158" viewBox="0 0 149 158">
  <defs>
    <clipPath id="clip-path">
      <path id="Clip_2" data-name="Clip 2" d="M0,0H149V158H0Z" fill="none"/>
    </clipPath>
  </defs>
  <g id="Group_3" data-name="Group 3" clip-path="url(#clip-path)">
    <path id="Fill_1" data-name="Fill 1" d="M92.135,130a11.159,11.159,0,0,1-1.984-.18,10.862,10.862,0,0,1-7.106-4.681l-41.5-62.166a.753.753,0,0,0-.695-.263c-.53.049-1.067.074-1.6.074A17.212,17.212,0,0,1,25.3,55.661L.558,21.164A2.774,2.774,0,1,1,5.07,17.938L29.788,52.364a11.678,11.678,0,0,0,9.433,4.812c.356,0,.717-.017,1.073-.049.194-.018.392-.027.586-.027a6.363,6.363,0,0,1,2.711.61A6.291,6.291,0,0,1,46.123,59.9l41.554,62.179a5.34,5.34,0,1,0,8.675-6.2l-45.8-59.1a6.247,6.247,0,0,1-.709-6.37,11.592,11.592,0,0,0-1.166-11.452L23.917,4.435a2.773,2.773,0,0,1,2.7-4.393,2.8,2.8,0,0,1,1.81,1.166l24.79,34.51a17.152,17.152,0,0,1,1.721,16.923.748.748,0,0,0,0,.734l45.788,59.107A10.873,10.873,0,0,1,92.135,130Zm-59.08,0h-.027a10.74,10.74,0,0,1-6.094-1.894,11.257,11.257,0,0,1-4.791-7.615,11.6,11.6,0,0,1,2.174-8.752L44.6,85.091a2.75,2.75,0,0,1,3.892-.5,2.837,2.837,0,0,1,.5,3.941L28.706,115.175a5.824,5.824,0,0,0,1.385,8.3,5.4,5.4,0,0,0,4.154.814,6.33,6.33,0,0,0,4-2.721L52.943,98.836a2.761,2.761,0,0,1,2.291-1.224,2.733,2.733,0,0,1,1.521.463,2.827,2.827,0,0,1,.814,3.847h.015l-14.75,22.707a11.884,11.884,0,0,1-3.267,3.335,11.738,11.738,0,0,1-4.28,1.812A11.281,11.281,0,0,1,33.054,130ZM79.225,68h0a2.752,2.752,0,0,1-1.991-.844,2.8,2.8,0,0,1-.045-3.857,20.329,20.329,0,0,1,1.849-1.608,18.521,18.521,0,0,1,8.094-3.55,28.424,28.424,0,0,0,11.619-5.248,45.907,45.907,0,0,0,10.5-10.772,42.081,42.081,0,0,0,8.078-20.885c.417-6.247-1.316-11.1-4.88-13.658a11,11,0,0,0-6.567-1.963A20.41,20.41,0,0,0,98.019,7.4a41.783,41.783,0,0,0-16.993,14.5c-6.1,8.609-9.107,18.663-7.842,26.239a18.722,18.722,0,0,1-.765,9.017,2.785,2.785,0,1,1-5.27-1.8,13.053,13.053,0,0,0,.543-6.291c-1.529-9.107,1.762-20.473,8.8-30.4a47.413,47.413,0,0,1,19.4-16.411A25.78,25.78,0,0,1,105.943,0a16.413,16.413,0,0,1,9.776,3c5.156,3.717,7.72,10.321,7.219,18.594a47.779,47.779,0,0,1-9.108,23.764c-7.075,9.932-16.7,16.768-25.739,18.286a12.9,12.9,0,0,0-5.632,2.489,14.194,14.194,0,0,0-1.391,1.16A2.768,2.768,0,0,1,79.225,68ZM37.241,46h0a2.754,2.754,0,0,1-2.262-1.2L12.5,12.381A2.807,2.807,0,0,1,13.18,8.5,2.722,2.722,0,0,1,14.756,8a2.756,2.756,0,0,1,2.264,1.191L39.5,41.613a2.8,2.8,0,0,1,.191,2.887A2.749,2.749,0,0,1,37.241,46Z" transform="translate(13 14)" fill="#fff"/>
  </g>
</svg>
