<svg xmlns="http://www.w3.org/2000/svg" xmlns:xlink="http://www.w3.org/1999/xlink" width="151" height="151" viewBox="0 -20 151 151">
  <defs>
    <clipPath id="clip-path">
      <path id="Clip_2" data-name="Clip 2" d="M0,0H151V121H0Z" fill="none"/>
    </clipPath>
  </defs>
  <g id="Group_3" data-name="Group 3" clip-path="url(#clip-path)">
    <path id="Fill_1" data-name="Fill 1" d="M88.771,121H54.657a6.445,6.445,0,0,1-6.416-7.07l4.3-45.289-6.718-8.7a2.529,2.529,0,0,1-.408-.784l-1.961-6.214H37.75V73.105a7.565,7.565,0,0,1-7.55,7.562H20.133a7.564,7.564,0,0,1-7.549-7.562V60.5H7.55A7.565,7.565,0,0,1,0,52.938V27.729a7.565,7.565,0,0,1,7.55-7.562h5.032V7.563A7.565,7.565,0,0,1,20.132,0H30.2a7.565,7.565,0,0,1,7.55,7.563V27.729H45.3V17.646a7.516,7.516,0,0,1,12.584-5.6,7.427,7.427,0,0,1,10.066,0,7.427,7.427,0,0,1,10.067,0,7.476,7.476,0,0,1,12.121,3.076h.239a17.516,17.516,0,0,1,16.4,11.193l.554,1.41h5.924V7.563A7.565,7.565,0,0,1,120.8,0h10.067a7.565,7.565,0,0,1,7.549,7.563v12.6h5.034A7.564,7.564,0,0,1,151,27.729V52.937a7.565,7.565,0,0,1-7.55,7.563h-5.034V73.1a7.565,7.565,0,0,1-7.55,7.563H120.8a7.565,7.565,0,0,1-7.55-7.563V52.937h-5.593a8.98,8.98,0,0,1-2.572,3.847L91.276,68.64a1.409,1.409,0,0,0-.486,1.215l4.4,44.042a6.455,6.455,0,0,1-6.415,7.1ZM48.736,52.937,50.082,57.2l7.051,9.136a2.537,2.537,0,0,1,.514,1.783l-4.4,46.283a1.432,1.432,0,0,0,.363,1.089,1.4,1.4,0,0,0,1.048.464H88.771A1.414,1.414,0,0,0,90.18,114.4l-4.4-44.042a6.47,6.47,0,0,1,2.222-5.548l13.8-11.854a3.949,3.949,0,0,0,1.372-2.993V31.177a1.451,1.451,0,0,0-.15-.635l-.946-2.382A12.505,12.505,0,0,0,90.6,20.168v8.024a7.571,7.571,0,0,1,5.034,7.1v9.041A5.01,5.01,0,0,1,94.157,47.9L90.6,51.459a5.05,5.05,0,0,1-3.559,1.478Zm-28.6-47.9a2.522,2.522,0,0,0-2.516,2.521V73.105a2.522,2.522,0,0,0,2.516,2.521H30.2a2.522,2.522,0,0,0,2.516-2.521V7.563A2.522,2.522,0,0,0,30.2,5.042Zm100.667,0a2.522,2.522,0,0,0-2.516,2.521V73.1a2.522,2.522,0,0,0,2.516,2.521h10.067a2.522,2.522,0,0,0,2.516-2.521V7.563a2.522,2.522,0,0,0-2.516-2.521Zm17.617,20.166V55.459h5.034a2.522,2.522,0,0,0,2.516-2.521V27.729a2.522,2.522,0,0,0-2.516-2.521Zm-130.867,0a2.521,2.521,0,0,0-2.516,2.52V52.938A2.522,2.522,0,0,0,7.55,55.459h5.034V25.209Zm100.668,7.562V47.9h5.033V32.771Zm-70.467,0V47.9H87.043L90.6,44.332V35.292a2.419,2.419,0,0,0-.187-.9,7.563,7.563,0,0,1-3.674,4.936c-.139.082-.322.187-.516.281-.157.075-.316.143-.486.207a6.621,6.621,0,0,1-.935.292l-.107.028c-.074.02-.149.04-.226.055-.028,0-.057.013-.082.02a.866.866,0,0,1-.087.021,2.131,2.131,0,0,1-.307.02c-.069,0-.14,0-.209.008s-.161.019-.239.03a3.607,3.607,0,0,1-.495.045.838.838,0,0,1-.128-.013c-.031,0-.063-.01-.1-.012a4.47,4.47,0,0,1-.471-.043l-.16-.02a7.833,7.833,0,0,1-.94-.155c-.187-.046-.371-.109-.55-.17l-.049-.017a7.383,7.383,0,0,1-.856-.34c-.222-.1-.429-.224-.585-.317a7.769,7.769,0,0,1-.733-.5,1.623,1.623,0,0,0-.151-.1,1.423,1.423,0,0,1-.173-.12c-.038-.03-.074-.062-.11-.094l-.036-.032a3.124,3.124,0,0,1-.3.228c-.058.041-.117.082-.174.126l-.127.1c-.111.087-.225.176-.346.254a7.138,7.138,0,0,1-.743.406c-.053.027-.105.055-.158.083a3.479,3.479,0,0,1-.346.17,7.6,7.6,0,0,1-.876.274l-.033.009c-.06.016-.12.035-.178.054a2.8,2.8,0,0,1-.285.079,7.518,7.518,0,0,1-1.468.148,7.657,7.657,0,0,1-1.463-.146,2.8,2.8,0,0,1-.282-.079c-.062-.02-.125-.04-.189-.057a7.421,7.421,0,0,1-.9-.281c-.12-.049-.234-.11-.345-.168-.057-.03-.111-.059-.166-.086l-.027-.014a7.305,7.305,0,0,1-.71-.387c-.124-.08-.241-.171-.353-.26l-.125-.1c-.06-.047-.124-.091-.184-.135a3.16,3.16,0,0,1-.286-.219,3.3,3.3,0,0,1-.3.229c-.057.04-.115.081-.171.124l-.106.083c-.118.093-.239.189-.369.272a7.482,7.482,0,0,1-.691.378l-.046.023c-.058.029-.115.059-.171.089-.109.058-.222.117-.34.166a6.692,6.692,0,0,1-.784.248l-.118.032c-.062.017-.124.037-.184.056a2.5,2.5,0,0,1-.286.08,7.514,7.514,0,0,1-1.467.148,7.736,7.736,0,0,1-1.467-.146,2.6,2.6,0,0,1-.268-.076c-.064-.021-.129-.041-.2-.059a7.457,7.457,0,0,1-.908-.283,3.623,3.623,0,0,1-.326-.159c-.058-.031-.116-.061-.175-.09l-.111-.056a6.8,6.8,0,0,1-.635-.351c-.133-.087-.259-.186-.38-.281l-.093-.073c-.058-.044-.118-.086-.176-.127a3.17,3.17,0,0,1-.3-.226l-.1.087-.045.039a1.429,1.429,0,0,1-.178.123,1.783,1.783,0,0,0-.149.1,7.569,7.569,0,0,1-.724.492c-.175.1-.383.222-.6.325a7.776,7.776,0,0,1-.825.328l-.09.03c-.184.062-.358.121-.544.167a7.261,7.261,0,0,1-.889.146l-.178.021c-.164.02-.333.041-.5.046a.855.855,0,0,0-.1.011.76.76,0,0,1-.115.012,3.447,3.447,0,0,1-.465-.042c-.084-.011-.171-.023-.258-.031s-.151-.009-.224-.01a1.931,1.931,0,0,1-.3-.021.656.656,0,0,1-.076-.02.649.649,0,0,0-.074-.02c-.114-.021-.224-.053-.33-.084-.056-.016-.112-.032-.169-.047a5.727,5.727,0,0,1-1.46-.553l-.047-.024-.132-.07c-.095-.05-.192-.1-.285-.158a7.691,7.691,0,0,1-2.7-2.7A7.461,7.461,0,0,1,45.3,32.771ZM72.984,15.125a2.522,2.522,0,0,0-2.516,2.521V32.771a2.517,2.517,0,1,0,5.034,0V17.646A2.522,2.522,0,0,0,72.984,15.125Zm-10.066,0A2.522,2.522,0,0,0,60.4,17.646V32.771a2.516,2.516,0,1,0,5.033,0V17.646A2.522,2.522,0,0,0,62.917,15.125Zm-10.066,0a2.522,2.522,0,0,0-2.516,2.521v12.6l0,2.248a2.941,2.941,0,0,0,1.15,2.329l.053.039a1.246,1.246,0,0,0,.161.108,1.933,1.933,0,0,0,.375.15l.055.018a2.281,2.281,0,0,0,.493.1c.055,0,.112.007.17.007a2.908,2.908,0,0,0,.441-.038l.079-.012a1.925,1.925,0,0,0,.333-.071,2.415,2.415,0,0,0,.576-.3l.094-.058a1.375,1.375,0,0,0,.223-.156,2.586,2.586,0,0,0,.433-.569,1.147,1.147,0,0,1,.072-.1.8.8,0,0,0,.1-.152,2.5,2.5,0,0,0,.223-1.019V17.646A2.522,2.522,0,0,0,52.851,15.125Zm30.2,0a2.522,2.522,0,0,0-2.517,2.521V32.771a2.529,2.529,0,0,0,.221,1.016.783.783,0,0,0,.1.153,1.123,1.123,0,0,1,.072.1,2.517,2.517,0,0,0,.433.57,1.22,1.22,0,0,0,.211.147c.037.022.075.045.111.07a2.431,2.431,0,0,0,.569.3,2.2,2.2,0,0,0,.367.076l.061.009a2.839,2.839,0,0,0,.438.036c.054,0,.108,0,.16-.006a2.4,2.4,0,0,0,.5-.1l.01,0a1.991,1.991,0,0,0,.415-.163,1.488,1.488,0,0,0,.154-.1l.065-.046A2.94,2.94,0,0,0,85.567,32.5V17.646a2.522,2.522,0,0,0-2.516-2.521Z" fill="#fff"/>
  </g>
</svg>
