<?xml version="1.0" encoding="utf-8"?>
<svg version="1.2" xmlns="http://www.w3.org/2000/svg" viewBox="0 0 1366 768" width="1366" height="768">
    <title>map-svg</title>
    <style>
        .s0 { fill: #ffffff }
    </style>
    <path id="Layer" fill-rule="evenodd" class="s0" d="m698.6 753.6c-195.3 0-353.2-164.9-353.2-369 0-204.1 157.9-369 353.2-369 195.3 0 353.2 164.9 353.2 369 0 204.1-157.9 369-353.2 369zm2.8-142.8c40.9-62.5 125.6-177.4 145.5-236.3 5.9-16.9 9.3-34.5 9.3-53 0-91-70.6-164.6-157.6-164.6-87 0-157.6 73.6-157.6 164.6 0 18.3 3.4 36.1 9.3 53 20 58.9 104.6 173.8 145.5 236.3 1.3 2.2 4.3 2.2 5.6 0zm-2.8-197.4c-48.7 0-88.1-41.2-88.1-92.1 0-50.9 39.4-92 88.1-92 48.7 0 88.1 41.1 88.1 92 0 50.9-39.4 92.1-88.1 92.1z"/>
</svg>
