<svg version="1.1" id="Layer_1" xmlns="http://www.w3.org/2000/svg" xmlns:xlink="http://www.w3.org/1999/xlink" x="0px" y="0px"
     width="101" height="101"
     viewBox="40 30 120 120" style="enable-background:new 0 0 200 200;" xml:space="preserve">
    <g>
	<path style="fill:white;fill-rule:evenodd;clip-rule:evenodd;" class="st0" d="M100,84.3c-13,0-23.6,10.6-23.6,23.6c0,13,10.6,23.6,23.6,23.6c13,0,23.6-10.6,23.6-23.6S113,84.3,100,84.3z
		 M100,92.1c8.7,0,15.7,7,15.7,15.7c0,8.7-7,15.7-15.7,15.7c-8.7,0-15.7-7-15.7-15.7C84.3,99.2,91.3,92.1,100,92.1z"/>
        <path style="fill:white;fill-rule:evenodd;clip-rule:evenodd;" class="st0" d="M77.9,72.5H53.6c-4.8,0-8.6,3.9-8.6,8.6v53.4c0,4.8,3.9,8.6,8.6,8.6h92.7c4.8,0,8.6-3.9,8.6-8.6V81.1
		c0-4.8-3.9-8.6-8.6-8.6h-24.3l-5.5-10.9c-1.5-2.9-4.5-4.8-7.7-4.8H91.1c-3.3,0-6.3,1.9-7.7,4.8L77.9,72.5z M146.4,80.4H53.6
		c-0.4,0-0.8,0.4-0.8,0.8v53.4c0,0.4,0.4,0.8,0.8,0.8h92.7c0.4,0,0.8-0.4,0.8-0.8V81.1C147.1,80.7,146.8,80.4,146.4,80.4z
		 M113.3,72.5l-3.7-7.4c-0.1-0.3-0.4-0.4-0.7-0.4H91.1c-0.3,0-0.6,0.2-0.7,0.4l-3.7,7.4H113.3z"/>
</g>
</svg>
